<svg width="20" height="20" viewBox="0 0 20 20" fill="none" xmlns="http://www.w3.org/2000/svg">
<path d="M14.168 1.66699H5.83464C3.53345 1.66699 1.66797 3.53247 1.66797 5.83366V14.167C1.66797 16.4682 3.53345 18.3337 5.83464 18.3337H14.168C16.4692 18.3337 18.3346 16.4682 18.3346 14.167V5.83366C18.3346 3.53247 16.4692 1.66699 14.168 1.66699Z" stroke="white" stroke-linecap="round" stroke-linejoin="round"/>
<path d="M13.3337 9.47525C13.4366 10.1688 13.3181 10.8771 12.9952 11.4994C12.6723 12.1218 12.1614 12.6264 11.5351 12.9416C10.9088 13.2569 10.1991 13.3666 9.5069 13.2552C8.81468 13.1438 8.17521 12.817 7.67944 12.3212C7.18367 11.8255 6.85685 11.186 6.74546 10.4938C6.63408 9.80155 6.74379 9.09183 7.05901 8.46556C7.37423 7.8393 7.8789 7.32837 8.50123 7.00545C9.12356 6.68254 9.83187 6.56407 10.5254 6.66692C11.2328 6.77182 11.8878 7.10147 12.3935 7.60717C12.8992 8.11288 13.2288 8.76782 13.3337 9.47525Z" stroke="white" stroke-linecap="round" stroke-linejoin="round"/>
<path d="M14.9968 5.35555C15.0096 5.44224 14.9948 5.53078 14.9545 5.60857C14.9141 5.68636 14.8502 5.74945 14.772 5.78885C14.6937 5.82825 14.605 5.84196 14.5184 5.82804C14.4319 5.81412 14.352 5.77327 14.29 5.71129C14.228 5.64932 14.1872 5.56939 14.1733 5.48286C14.1593 5.39634 14.1731 5.30762 14.2125 5.22934C14.2519 5.15105 14.3149 5.08719 14.3927 5.04682C14.4705 5.00646 14.5591 4.99165 14.6458 5.00451C14.7342 5.01762 14.8161 5.05883 14.8793 5.12204C14.9425 5.18525 14.9837 5.26712 14.9968 5.35555Z" stroke="white" stroke-linecap="round" stroke-linejoin="round"/>
</svg>
