<svg width="50" height="50" viewBox="0 0 50 50" fill="none" xmlns="http://www.w3.org/2000/svg">
<g clip-path="url(#clip0_4198_925)">
<path d="M38.2353 12.1323C44.7327 12.1323 50 17.3995 50 23.8971C50 30.0182 45.3253 35.0475 39.3512 35.6096C37.4997 43.1981 28.7086 49.6324 19.8529 49.6324C19.792 49.6324 19.7311 49.6286 19.6705 49.6211C12.9361 48.7792 0 25.3709 0 15.0735C0 6.22441 3.31035 0.367676 7.35293 0.367676C8.87568 0.367676 11.3463 1.12793 14.9474 2.64414C16.5833 3.33301 17.6471 4.93516 17.6471 6.71016V8.84404C17.6471 10.5151 16.7029 12.0428 15.2083 12.79L15.0942 12.8411L8.92129 15.297C9.55225 18.5706 13.2249 23.5086 19.5667 29.7081C20.5706 26.4268 23.1735 23.815 26.5176 22.8389C27.0525 16.8372 32.0945 12.1323 38.2353 12.1323Z" fill="white"/>
</g>
<defs>
<clipPath id="clip0_4198_925">
<rect width="50" height="50" fill="white"/>
</clipPath>
</defs>
</svg>
