<svg width="56" height="56" viewBox="0 0 56 56" fill="none" xmlns="http://www.w3.org/2000/svg">
<path fill-rule="evenodd" clip-rule="evenodd" d="M29.9218 5.12286C28.6649 4.76373 27.3325 4.76373 26.0756 5.12286L14.409 8.45619C11.4039 9.31479 9.33203 12.0615 9.33203 15.1869V27.7272C9.33203 34.5093 12.6073 40.8737 18.126 44.8156L23.9301 48.9613C26.364 50.6998 29.6334 50.6998 32.0673 48.9613L37.8713 44.8156C43.3901 40.8737 46.6654 34.5093 46.6654 27.7272V15.1869C46.6654 12.0615 44.5936 9.31479 41.5885 8.45619L29.9218 5.12286ZM36.5945 19.2977C37.5348 20.1791 37.5824 21.6557 36.7009 22.5959L27.9509 31.9291C27.1151 32.8209 25.7328 32.9163 24.7822 32.1482L19.5322 27.9057C18.5298 27.0958 18.3739 25.6268 19.1839 24.6244C19.9938 23.622 21.4629 23.4661 22.4652 24.276L26.0291 27.156L33.2965 19.4041C34.1778 18.464 35.6544 18.4164 36.5945 19.2977Z" fill="white"/>
</svg>
