<svg width="47" height="43" viewBox="0 0 47 43" fill="none" xmlns="http://www.w3.org/2000/svg">
<path d="M39.0911 19.8785C37.2682 19.8785 35.4466 19.895 33.6251 19.8785C32.757 19.8675 32.1025 20.1637 31.6368 20.9147C31.284 21.4837 30.8803 22.017 30.4918 22.5681C30.4077 22.6866 30.354 22.8892 30.1735 22.8589C29.993 22.8285 29.9875 22.6274 29.9337 22.4882C29.1612 20.4673 28.3914 18.4441 27.6244 16.4186C27.3488 15.6897 26.9272 15.1551 26.0757 15.1289C25.3357 15.1055 24.808 15.4583 24.5035 16.2189C23.5335 18.6439 22.569 21.0708 21.6099 23.4996C21.5466 23.6594 21.4873 23.822 21.4157 23.9777C21.3619 24.0934 21.3633 24.2863 21.1924 24.2795C21.0216 24.2726 21.0161 24.0865 20.9692 23.9653C20.2344 22.0767 19.5023 20.1862 18.7729 18.2939C17.9048 16.0508 17.0377 13.8076 16.1715 11.5644C15.8408 10.7087 15.28 10.2761 14.5469 10.2926C13.8139 10.3091 13.3068 10.7404 12.9982 11.5878C12.0571 14.1699 11.1091 16.7507 10.1859 19.3397C10.0482 19.7421 9.8525 19.8992 9.41158 19.8909C6.76467 19.8716 4.11776 19.8785 1.47086 19.8909C1.13466 19.8909 0.900416 19.8578 0.781919 19.4541C-0.514666 14.79 -0.272157 10.265 2.06335 5.96191C3.7168 2.90853 6.18459 0.841715 9.67476 0.181711C12.2362 -0.303303 14.6599 0.229935 16.9941 1.2909C19.1298 2.26231 20.9899 3.64708 22.6833 5.24542C23.0526 5.59264 23.2662 5.54993 23.6051 5.23026C25.2999 3.62641 27.1587 2.24577 29.2971 1.28126C32.3064 -0.0773335 35.3846 -0.509986 38.5427 0.745263C41.3743 1.87375 43.2909 3.97364 44.5861 6.66188C45.7859 9.11294 46.3592 11.8233 46.2547 14.5502C46.1729 16.1635 45.9198 17.7635 45.4996 19.3232C45.3908 19.7476 45.2034 19.9019 44.757 19.8964C42.872 19.8647 40.9816 19.8785 39.0911 19.8785Z" fill="white"/>
<path d="M14.5974 16.6104C14.8358 16.795 14.8647 17.0086 14.9378 17.196C16.4994 21.2313 18.061 25.2676 19.6226 29.3048C19.8623 29.9234 20.2481 30.3712 20.9467 30.4512C21.7817 30.5476 22.3825 30.1756 22.7131 29.3489C23.6997 26.8687 24.6766 24.3995 25.6618 21.9262C25.7431 21.7237 25.7679 21.3751 25.9718 21.3751C26.2378 21.3751 26.2336 21.7306 26.3149 21.9414C26.9423 23.559 27.5614 25.1794 28.1723 26.8025C28.43 27.4915 28.8764 27.9627 29.6191 28.0233C30.2874 28.0784 30.7889 27.7478 31.1678 27.187C31.9863 25.9772 32.8419 24.7936 33.6604 23.5838C33.7541 23.4235 33.891 23.2928 34.0555 23.2065C34.2199 23.1203 34.4053 23.082 34.5905 23.096C37.495 23.1139 40.3982 23.1057 43.3028 23.1057C44.1902 23.1057 44.1929 23.1057 43.7975 23.9324C42.4604 26.6898 40.7561 29.2534 38.731 31.5535C34.9653 35.8924 30.5064 39.3881 25.5695 42.2899C23.9877 43.22 22.3521 43.2434 20.7662 42.3202C16.5265 39.8552 12.645 36.9134 9.2237 33.3957C6.43763 30.5338 4.06354 27.3688 2.37426 23.7257C2.08766 23.1098 2.08629 23.1071 2.74767 23.1071H10.5837C11.8885 23.1071 12.3226 22.797 12.7621 21.579C13.305 20.0771 13.8506 18.5761 14.399 17.0761C14.4472 16.9328 14.512 16.795 14.5974 16.6104Z" fill="white"/>
</svg>
