<svg width="36" height="43" viewBox="0 0 36 43" fill="none" xmlns="http://www.w3.org/2000/svg">
<path d="M6.3612 1.55044L1.57152 6.27734C1.26467 6.58019 1.48194 7.09821 1.9158 7.09821H6.70548C6.97448 7.09812 7.19251 6.88287 7.19251 6.61731V1.89049C7.19251 1.46217 6.66796 1.24767 6.3612 1.55044Z" fill="#574770"/>
<path d="M27.7 26.6122C23.1235 26.6122 19.4001 30.2879 19.4001 34.806C19.4001 39.3242 23.1235 43 27.7 43C32.2766 43 36 39.3242 36 34.806C36.0001 30.2879 32.2767 26.6122 27.7 26.6122ZM26.4212 31.6087C26.4212 30.9114 26.9938 30.3461 27.7001 30.3461C28.4065 30.3461 28.9791 30.9114 28.9791 31.6087V34.8061C28.9791 35.5035 28.4065 36.0688 27.7001 36.0688C26.9938 36.0688 26.4212 35.5035 26.4212 34.8061V31.6087ZM28.9724 38.2718C28.9682 38.313 28.9623 38.3542 28.9537 38.3946C28.9461 38.435 28.9349 38.4754 28.923 38.5141C28.9111 38.5537 28.8966 38.5924 28.8813 38.6303C28.8652 38.6682 28.8472 38.706 28.8276 38.7422C28.8081 38.7784 28.7867 38.8146 28.7637 38.8483C28.7405 38.8828 28.7151 38.9165 28.6886 38.9485C28.6621 38.9805 28.634 39.0117 28.6043 39.0402C28.5752 39.0697 28.5437 39.0975 28.5114 39.1244C28.4789 39.1496 28.4448 39.1748 28.4099 39.1976C28.3757 39.2204 28.3391 39.2414 28.3024 39.2608C28.2657 39.2802 28.2274 39.2978 28.189 39.3138C28.1507 39.3297 28.1114 39.3432 28.0714 39.355C28.0312 39.3676 27.9912 39.3777 27.9503 39.3853C27.9094 39.3937 27.8675 39.4004 27.8258 39.4039C27.7841 39.4081 27.7423 39.4106 27.7005 39.4106C27.6588 39.4106 27.6161 39.4081 27.5744 39.4039C27.5335 39.4005 27.4917 39.3938 27.4508 39.3853C27.4099 39.3777 27.3689 39.3677 27.3289 39.355C27.2887 39.3432 27.2495 39.3297 27.2112 39.3138C27.1728 39.2978 27.1345 39.2801 27.0978 39.2608C27.0611 39.2414 27.0252 39.2204 26.9903 39.1976C26.9554 39.1748 26.9212 39.1496 26.8896 39.1244C26.8564 39.0974 26.8257 39.0697 26.7959 39.0402C26.7659 39.0116 26.7378 38.9804 26.7115 38.9485C26.685 38.9165 26.6604 38.8828 26.6373 38.8483C26.6134 38.8146 26.5921 38.7784 26.5725 38.7422C26.5528 38.706 26.535 38.6682 26.5197 38.6303C26.5035 38.5924 26.489 38.5537 26.477 38.5141C26.4651 38.4754 26.4548 38.435 26.4463 38.3946C26.4378 38.3542 26.4319 38.313 26.4275 38.2718C26.4232 38.2305 26.4216 38.1893 26.4216 38.148C26.4216 38.1068 26.4234 38.0647 26.4275 38.0235C26.4318 37.9831 26.4377 37.9419 26.4463 37.9015C26.4549 37.8611 26.4651 37.8207 26.477 37.7811C26.489 37.7424 26.5035 37.7028 26.5197 37.665C26.535 37.6271 26.5529 37.5892 26.5725 37.553C26.592 37.5168 26.6133 37.4815 26.6373 37.4469C26.6605 37.4124 26.685 37.3787 26.7115 37.3476C26.738 37.3156 26.766 37.2844 26.7959 37.255C26.8258 37.2264 26.8565 37.1978 26.8896 37.1717C26.9212 37.1456 26.9554 37.1213 26.9903 37.0985C27.0252 37.0757 27.0611 37.0539 27.0978 37.0345C27.1345 37.0151 27.1728 36.9975 27.2112 36.9823C27.2495 36.9664 27.2887 36.952 27.3289 36.9403C27.3689 36.9285 27.4098 36.9183 27.4508 36.9099C27.4918 36.9015 27.5335 36.8957 27.5744 36.8914C27.6578 36.883 27.7423 36.883 27.8259 36.8914C27.8676 36.8956 27.9094 36.9015 27.9504 36.9099C27.9912 36.9183 28.0313 36.9285 28.0714 36.9403C28.1115 36.952 28.1507 36.9664 28.1891 36.9823C28.2275 36.9975 28.2658 37.0152 28.3025 37.0345C28.3392 37.0539 28.3757 37.0757 28.4099 37.0985C28.4449 37.1213 28.479 37.1456 28.5114 37.1717C28.5438 37.1978 28.5754 37.2264 28.6043 37.255C28.6342 37.2845 28.6624 37.3157 28.6886 37.3476C28.7152 37.3787 28.7406 37.4124 28.7638 37.4469C28.7868 37.4815 28.8081 37.5168 28.8277 37.553C28.8472 37.5892 28.8652 37.6271 28.8814 37.665C28.8967 37.7028 28.9113 37.7424 28.9231 37.7811C28.9351 37.8207 28.9462 37.8611 28.9538 37.9015C28.9624 37.9419 28.9683 37.9831 28.9725 38.0235C28.9769 38.0647 28.9793 38.1068 28.9793 38.148C28.9793 38.1893 28.9768 38.2305 28.9724 38.2718Z" fill="#574770"/>
<path d="M25.3734 0H10.2375C9.96847 0 9.75043 0.215252 9.75043 0.480811V8.30196C9.75043 8.31187 9.74916 8.32152 9.7489 8.33135C9.74916 8.34118 9.75043 8.35083 9.75043 8.36075C9.75043 9.05807 9.17782 9.62337 8.47147 9.62337H0.487033C0.218038 9.62337 0 9.83862 0 10.1042V33.6539C0 35.6198 1.61431 37.2135 3.60566 37.2135H17.0452C17.6034 37.2135 18.0239 36.7117 17.9175 36.1709C17.7977 35.561 17.7349 34.9309 17.7349 34.2864C17.7349 28.8531 22.1964 24.8693 27.7001 24.8693C27.8212 24.8693 27.9417 24.8714 28.0618 24.8757C28.5635 24.8934 28.979 24.4948 28.979 23.999V3.5596C28.979 1.59369 27.3648 0 25.3734 0ZM12.9051 29.9606H6.39803C5.69169 29.9606 5.11907 29.3953 5.11907 28.698C5.11907 28.0007 5.69169 27.4354 6.39803 27.4354H12.9051C13.6115 27.4354 14.1841 28.0007 14.1841 28.698C14.1841 29.3953 13.6115 29.9606 12.9051 29.9606ZM22.5811 24.9343H6.39795C5.6916 24.9343 5.11899 24.369 5.11899 23.6717C5.11899 22.9744 5.6916 22.4091 6.39795 22.4091H22.5811C23.2875 22.4091 23.8601 22.9744 23.8601 23.6717C23.8601 24.369 23.2874 24.9343 22.5811 24.9343ZM22.5811 19.8693H6.39795C5.6916 19.8693 5.11899 19.304 5.11899 18.6067C5.11899 17.9094 5.6916 17.3441 6.39795 17.3441H22.5811C23.2875 17.3441 23.8601 17.9094 23.8601 18.6067C23.8601 19.304 23.2874 19.8693 22.5811 19.8693ZM22.5811 14.9988H6.39795C5.6916 14.9988 5.11899 14.4335 5.11899 13.7362C5.11899 13.0389 5.6916 12.4736 6.39795 12.4736H22.5811C23.2875 12.4736 23.8601 13.0389 23.8601 13.7362C23.8601 14.4335 23.2874 14.9988 22.5811 14.9988Z" fill="#574770"/>
</svg>
