<svg width="37" height="37" viewBox="0 0 37 37" fill="none" xmlns="http://www.w3.org/2000/svg">
<path d="M36.0548 4.39098C35.8972 5.4045 35.3007 6.14896 34.5746 6.82029C34.4283 6.95525 34.3551 6.95525 34.2184 6.82029C32.8659 5.45848 31.5091 4.10161 30.1478 2.74968C30.012 2.61384 30.0059 2.53983 30.1426 2.39355C30.8165 1.66998 31.5558 1.06396 32.5806 0.91333H33.2772C33.3302 0.934404 33.3846 0.951859 33.44 0.965574C34.199 1.09292 34.8842 1.49601 35.3643 2.09751C35.7526 2.5677 35.9146 3.12409 36.0609 3.69354L36.0548 4.39098Z" fill="#574770"/>
<path d="M31.4447 21.2917C31.2105 21.3006 30.9816 21.2214 30.803 21.0696C30.7056 20.9876 30.6126 20.9004 30.5244 20.8084C25.7338 16.0183 20.9438 11.2282 16.1543 6.43807C15.9035 6.1873 15.6789 5.93305 15.6737 5.54993C15.6655 5.41633 15.6848 5.28247 15.7305 5.15665C15.7762 5.03084 15.8472 4.91575 15.9392 4.81853C16.4851 4.26737 17.0101 3.6866 17.6003 3.19116C18.9472 2.05139 20.6475 2.13759 21.9238 3.3653C22.1492 3.58124 22.3712 3.96262 22.5993 3.9661C22.8274 3.96958 23.0512 3.58821 23.2758 3.37227C24.627 2.07577 26.4744 2.05051 27.8116 3.36269C29.7629 5.27827 31.6957 7.21069 33.6098 9.15994C34.9157 10.4913 34.887 12.352 33.5924 13.699C33.3783 13.9219 32.9917 14.1187 32.9978 14.3747C33.003 14.5958 33.373 14.81 33.5829 15.0234C34.8957 16.3747 34.9053 18.2224 33.5968 19.5885C33.1571 20.0492 32.6983 20.4924 32.2474 20.9416C32.0245 21.1585 31.7694 21.3056 31.4447 21.2917Z" fill="#574770"/>
<path d="M5.06796 16.1317C5.42142 16.1187 5.67738 16.2998 5.9168 16.5375C6.86401 17.4901 7.81355 18.4403 8.7654 19.3882L20.3348 30.9618C21.0313 31.6584 21.0365 32.1608 20.3348 32.8556C19.8752 33.3128 19.4364 33.796 18.9419 34.2131C17.5654 35.3764 15.8591 35.2936 14.5636 34.0389C14.3433 33.8274 14.1562 33.4347 13.8889 33.4608C13.6556 33.4834 13.4536 33.8413 13.2377 34.0494C11.8909 35.3485 10.0374 35.3755 8.70185 34.0642C6.7517 32.1486 4.81926 30.2159 2.90451 28.2661C1.58555 26.9199 1.62212 25.0557 2.94282 23.7044C3.09002 23.5409 3.2467 23.3862 3.41207 23.2412C3.58619 23.0958 3.54615 23.0043 3.40163 22.8659C3.03336 22.5176 2.65117 22.1693 2.39695 21.7226C1.64127 20.3887 1.82845 18.9694 2.91235 17.8375C3.35287 17.3777 3.81081 16.9345 4.26265 16.4852C4.48988 16.2676 4.74323 16.1204 5.06796 16.1317Z" fill="#574770"/>
<path d="M24.0354 17.2838C24.0267 17.3917 23.9483 17.4361 23.8961 17.4919C21.6133 19.779 19.3309 22.0669 17.0488 24.3558C16.8877 24.5177 16.8059 24.4855 16.6648 24.3427C15.3259 22.9948 13.9822 21.6519 12.634 20.3139C12.4598 20.145 12.4903 20.0579 12.6444 19.9046C14.9161 17.6408 17.1834 15.3705 19.4464 13.0939C19.597 12.9432 19.685 12.9067 19.8565 13.0808C21.192 14.4313 22.5388 15.7713 23.8813 17.1149C23.9379 17.1714 23.9927 17.2324 24.0354 17.2838Z" fill="#574770"/>
<path d="M3.57506 36.5118C2.24461 36.4352 1.24328 35.8239 0.726941 34.5875C0.192319 33.3084 0.483139 32.1408 1.42352 31.1334C1.58982 30.9592 1.78051 30.799 1.93463 30.6109C2.08875 30.4229 2.17495 30.4821 2.31513 30.6231C3.65314 31.971 4.99637 33.3137 6.34482 34.6511C6.50329 34.8087 6.512 34.8949 6.34482 35.0577C5.76754 35.6324 5.19896 36.2071 4.36394 36.4012C4.10401 36.4572 3.84035 36.4941 3.57506 36.5118Z" fill="#574770"/>
</svg>
