<svg width="36" height="36" viewBox="0 0 36 36" fill="none" xmlns="http://www.w3.org/2000/svg">
<path d="M18 21.7059C16.5011 21.7059 15.2423 22.7497 14.9101 24.1484C16.8497 25.1272 19.1495 25.1276 21.09 24.1484C20.7577 22.7497 19.4989 21.7059 18 21.7059Z" fill="#839B2C"/>
<path d="M18 11.1176C14.205 11.1176 11.1176 14.205 11.1176 18C11.1176 19.8868 11.881 21.5984 13.1149 22.843C13.5381 21.8331 14.2661 20.9821 15.1826 20.4035C14.6293 19.7558 14.2941 18.9165 14.2941 18C14.2941 15.9565 15.9565 14.2941 18 14.2941C20.0434 14.2941 21.7059 15.9565 21.7059 18C21.7059 18.9165 21.3707 19.7558 20.8174 20.4035C21.734 20.9821 22.4619 21.8331 22.8851 22.843C24.1189 21.5985 24.8824 19.8868 24.8824 18C24.8824 14.205 21.795 11.1176 18 11.1176Z" fill="#839B2C"/>
<path d="M18 19.5882C18.8772 19.5882 19.5882 18.8772 19.5882 18C19.5882 17.1228 18.8772 16.4118 18 16.4118C17.1228 16.4118 16.4118 17.1228 16.4118 18C16.4118 18.8772 17.1228 19.5882 18 19.5882Z" fill="#839B2C"/>
<path d="M36 21.0146V14.9854L31.2304 14.1904C30.9455 13.1992 30.5497 12.2449 30.048 11.3399L32.8596 7.40372L28.5963 3.1404L24.6601 5.952C23.7552 5.4504 22.8008 5.05454 21.8096 4.76965L21.0146 0H14.9854L14.1904 4.76965C13.1992 5.05454 12.2448 5.45047 11.3399 5.952L7.40372 3.1404L3.1404 7.40372L5.952 11.3399C5.4504 12.2449 5.05447 13.1992 4.76965 14.1904L0 14.9854V21.0146L4.76965 21.8096C5.05454 22.8008 5.4504 23.7552 5.952 24.6601L3.1404 28.5963L7.40372 32.8596L11.3399 30.048C12.2449 30.5497 13.1992 30.9455 14.1904 31.2304L14.9854 36H21.0146L21.8096 31.2304C22.8008 30.9455 23.7552 30.5496 24.6601 30.048L28.5963 32.8596L32.8596 28.5963L30.048 24.6601C30.5496 23.7552 30.9455 22.8008 31.2304 21.8096L36 21.0146ZM18 27C13.0374 27 9 22.9626 9 18C9 13.0374 13.0374 9 18 9C22.9626 9 27 13.0374 27 18C27 22.9626 22.9626 27 18 27Z" fill="#839B2C"/>
</svg>
