<svg width="69" height="53" viewBox="0 0 69 53" fill="none" xmlns="http://www.w3.org/2000/svg">
<path d="M3.23202 43.912C3.23202 43.912 9.43151 44.6663 11.5097 44.6638C13.4223 44.6638 16.2671 44.744 20.6522 41.4556C20.6522 41.4556 21.2956 45.148 24.9937 47.7436C24.9937 47.7436 26.2073 50.0822 27.5942 52.5229H51.7307C51.7537 50.6172 51.6413 48.6361 51.3203 46.619C51.3203 46.619 56.5604 36.6621 53.5349 30.2251C53.5349 30.2251 62.5698 27.7658 66.4683 18.2115C66.4683 18.2115 70.5788 14.6213 68.3228 12.3593C68.3228 12.3593 65.8615 7.9454 58.875 4.96776C58.875 4.96776 54.2559 2.3023 53.5393 1.3775C53.5393 1.3775 51.589 -1.70223 44.5038 3.52951C44.5038 3.52951 43.2742 7.53747 45.6319 9.28252C45.6319 9.28252 49.226 9.90052 50.8665 6.71379C50.8665 6.71379 51.1723 6.31026 50.5656 6.10166C50.5656 6.10166 51.8934 6.20327 52.6159 4.86908C52.6159 4.86908 55.6981 6.10166 57.128 9.79842C58.5648 13.4981 58.3572 13.7981 59.1804 14.4205C59.1804 14.4205 52.8187 16.1689 51.3795 20.9888C51.3795 20.9888 44.498 22.1169 43.3699 26.4316C43.3699 26.4316 37.9301 27.2499 39.0616 22.1169C39.0616 22.1169 39.9859 20.9888 42.4808 21.1281C42.4808 21.1281 43.7285 21.1975 42.8228 18.7968C42.7388 18.5725 43.0358 18.3078 43.1994 17.9037C43.3543 17.5349 43.2048 17.468 42.5199 16.8827C42.2957 16.698 42.7021 16.2784 42.8731 15.824C42.9806 15.5509 42.5199 14.5538 42.5199 14.5538C42.5199 14.5538 43.5893 13.717 43.5414 13.3217C43.4344 12.3857 40.9434 11.905 40.5311 11.0652C40.3664 10.731 40.9483 9.98553 40.873 9.63231C40.5902 8.29323 39.2106 5.56622 37.3629 4.50219C34.8314 3.04781 27.9201 2.58517 24.9087 8.67771C24.0953 10.3216 24.7466 14.3052 25.4549 16.0028C26.1179 17.6116 29.0989 21.9454 29.0989 21.9454C29.2391 22.3567 30.1903 28.3853 24.9928 29.8846C24.9928 29.8846 20.2677 29.6101 16.846 32.7611C16.846 32.7611 11.0285 32.2799 9.45594 35.7021C9.45594 35.7021 9.05094 29.7459 12.8146 26.1214C12.8146 26.1214 15.0013 26.6666 15.8919 26.1214C15.8919 26.1214 16.5763 28.3452 18.0805 27.4898C18.0805 27.4898 19.1465 27.7951 19.3155 26.8005C19.3155 26.8005 20.8857 26.7013 20.5798 25.159C20.5798 25.159 21.3654 22.9723 20.1011 22.3577C20.1011 22.3577 20.1617 20.4417 18.4528 20.5081C18.4528 20.5081 15.3428 20.7382 14.3134 20.6469C12.9729 20.535 10.6128 20.9893 9.17796 23.5258L4.18661 30.5055C4.18661 30.5055 0.696042 35.1594 0.217767 39.7443C0.223629 39.7418 -1.21608 43.164 3.23202 43.912Z" fill="white"/>
</svg>
