<svg width="61" height="57" viewBox="0 0 61 57" fill="none" xmlns="http://www.w3.org/2000/svg">
<path d="M19.0147 28.82C19.0481 27.4664 18.2661 26.2248 17.0308 25.6701C15.7956 25.1154 14.3481 25.3559 13.3586 26.2802L7.70243 31.6209C6.35319 32.8936 6.2911 35.019 7.56374 36.3683C8.83639 37.7175 10.9619 37.7796 12.3111 36.5069L17.9672 31.1662C18.6155 30.5553 18.9927 29.7106 19.0147 28.82Z" fill="white"/>
<path d="M44.7817 0.275038C40.3534 0.139206 36.054 1.77619 32.8374 4.82279C8.9174 27.4104 32.0554 5.56244 21.5252 15.5075C21.0943 15.9216 20.8406 16.4864 20.817 17.0836C20.7561 19.5201 25.0418 21.4268 27.7447 18.8707L35.8646 11.2066C36.4939 10.6125 37.3334 10.2927 38.1986 10.3175C39.0637 10.3424 39.8835 10.71 40.4776 11.3393L56.5225 28.3447C66.1706 17.9929 59.2679 0.698161 44.7817 0.275038Z" fill="white"/>
<path d="M31.2175 41.7552C31.2509 40.4015 30.4689 39.16 29.2336 38.6053C27.9984 38.0506 26.5509 38.2911 25.5614 39.2154L19.9052 44.5561C19.0326 45.3794 18.6655 46.6056 18.9422 47.7729C19.2188 48.9403 20.0972 49.8713 21.2465 50.2154C22.3958 50.5595 23.6413 50.2643 24.5139 49.441L30.17 44.1003C30.8186 43.49 31.1958 42.6455 31.2175 41.7552Z" fill="white"/>
<path d="M55.7247 30.6638C55.616 30.5865 55.9542 30.9118 38.8955 12.8328C38.6974 12.623 38.424 12.5005 38.1355 12.4924C37.8471 12.4842 37.5672 12.591 37.3575 12.7893L29.2377 20.4512C27.9582 21.6622 26.2493 22.314 24.4883 22.2625C22.7274 22.2111 21.0594 21.4607 19.8528 20.1771C19.0461 19.3259 18.6111 18.1886 18.644 17.0163C18.6768 15.8439 19.1748 14.7328 20.028 13.9281L28.9364 5.51571C24.8541 1.13565 18.7389 -0.722977 12.9097 0.64464C7.08046 2.01226 2.42995 6.39668 0.72165 12.1353C-0.986651 17.8739 0.508864 24.0879 4.64108 28.4209L6.18347 30.0525C6.27919 29.9437 6.19326 30.0405 11.857 24.6944C13.5949 23.0552 16.1895 22.7189 18.2879 23.8606C20.3864 25.0024 21.5132 27.3636 21.0809 29.7131C22.8265 29.4822 24.5768 30.1039 25.7855 31.3844C26.9942 32.6648 27.5141 34.448 27.183 36.1774C28.9294 35.9484 30.6795 36.5718 31.8879 37.8532C33.0963 39.1346 33.6161 40.9183 33.2851 42.6483C34.9866 42.4215 36.6959 43.0066 37.9016 44.2285C39.1072 45.4504 39.6694 47.1673 39.4198 48.8657C40.8608 49.7032 42.6982 49.3554 43.7333 48.0491C44.7684 46.7427 44.687 44.8745 43.5423 43.6631L29.0495 28.3078C28.7827 28.0251 28.687 27.6215 28.7985 27.2491C28.9099 26.8767 29.2116 26.5921 29.5898 26.5024C29.968 26.4127 30.3654 26.5316 30.6321 26.8143L45.1249 42.174C45.9486 43.0464 47.1751 43.4132 48.3424 43.1361C49.5098 42.859 50.4406 41.9802 50.7844 40.8307C51.1281 39.6812 50.8324 38.4356 50.0088 37.5632L35.5149 22.2046C35.1116 21.7663 35.1358 21.0852 35.5691 20.6767C36.0024 20.2681 36.6837 20.2839 37.0975 20.7122L51.5925 36.0708C52.5267 37.0579 53.9633 37.3852 55.2329 36.9003C56.5024 36.4154 57.355 35.2136 57.3933 33.8551C57.3432 32.5951 56.7309 31.4239 55.7247 30.6638Z" fill="white"/>
<path d="M34.0605 44.7683C33.1701 44.7399 32.3053 45.0689 31.6589 45.682L26.0027 51.0238C25.1301 51.8472 24.7631 53.0737 25.0399 54.2411C25.3167 55.4085 26.1953 56.3396 27.3448 56.6836C28.4942 57.0275 29.7399 56.7322 30.6125 55.9087L36.2686 50.568C37.2518 49.6339 37.5778 48.2006 37.0952 46.9331C36.6127 45.6656 35.4161 44.812 34.0605 44.7683Z" fill="white"/>
<path d="M25.1139 35.2877C25.1472 33.934 24.3653 32.6924 23.13 32.1378C21.8947 31.5831 20.4473 31.8236 19.4577 32.7479L13.8016 38.0886C12.4758 39.3662 12.4257 41.473 13.6892 42.8122C14.9527 44.1514 17.0588 44.2239 18.4114 42.9746L24.0675 37.6328C24.7152 37.022 25.092 36.1777 25.1139 35.2877Z" fill="white"/>
</svg>
