<svg width="54" height="54" viewBox="0 0 54 54" fill="none" xmlns="http://www.w3.org/2000/svg">
<g clip-path="url(#clip0_4197_892)">
<path d="M30.472 45.9018C8.23232 23.6625 30.3439 45.7734 8.10344 23.5334C7.48539 22.9151 6.48481 22.9151 5.86665 23.5334L3.62987 25.7703C1.77963 27.6205 1.77963 30.6306 3.62987 32.4809L4.74837 33.5991L3.62987 34.7176C1.77973 36.568 1.77973 39.5781 3.62997 41.4283L12.5773 50.3757C14.4276 52.2257 17.4377 52.2257 19.2879 50.3757L20.4062 49.2572L21.5247 50.3757C23.3749 52.2257 26.385 52.2257 28.2353 50.3757L30.472 48.1389C31.0903 47.5206 31.0903 46.52 30.472 45.9018Z" fill="white"/>
<path d="M50.3684 21.5193L49.2499 20.4008L50.3684 19.2823C52.2186 17.4322 52.2186 14.4219 50.3684 12.5719L41.421 3.6245C39.5708 1.77426 36.5607 1.77426 34.7104 3.6245L33.5919 4.74289L32.4735 3.6245C30.6233 1.77426 27.6132 1.77426 25.763 3.6245L23.5262 5.86128C22.9079 6.47954 22.9079 7.48013 23.5262 8.09807L45.8948 30.4667C46.5128 31.0847 47.5134 31.0847 48.1316 30.4667L50.3684 28.2297C52.2186 26.3795 52.2186 23.3693 50.3684 21.5193Z" fill="white"/>
<path d="M52.6062 1.38777C50.7562 -0.462574 47.7459 -0.462574 45.8958 1.38767L44.7773 2.50606L51.4879 9.21663L52.6062 8.09813C54.4564 6.2481 54.4564 3.2378 52.6062 1.38777Z" fill="white"/>
<path d="M2.51378 44.7834L1.39549 45.9017C-0.454748 47.752 -0.454748 50.7621 1.39549 52.6123C3.24553 54.4625 6.25582 54.4625 8.10585 52.6123L9.22435 51.4938L2.51378 44.7834Z" fill="white"/>
<path d="M29.1216 18.1639L18.1719 29.1255L24.8824 35.8361L35.8321 24.8746L29.1216 18.1639Z" fill="white"/>
</g>
<defs>
<clipPath id="clip0_4197_892">
<rect width="54" height="54" fill="white"/>
</clipPath>
</defs>
</svg>
