<svg width="20" height="20" viewBox="0 0 20 20" fill="none" xmlns="http://www.w3.org/2000/svg">
<path d="M18.3346 3.34048C17.6092 3.8424 16.8059 4.2263 15.9558 4.47737C15.4996 3.96281 14.8932 3.59809 14.2188 3.43257C13.5443 3.26704 12.8343 3.30867 12.1847 3.55185C11.5351 3.79502 10.9774 4.228 10.5869 4.79222C10.1964 5.35644 9.99198 6.02468 10.0013 6.70657V7.44963C8.66996 7.48349 7.35075 7.19388 6.16116 6.60658C4.97156 6.01929 3.94851 5.15255 3.18312 4.08355C3.18312 4.08355 0.152817 10.7711 6.971 13.7434C5.41079 14.7822 3.55218 15.303 1.66797 15.2295C8.48615 18.9449 16.8195 15.2295 16.8195 6.68427C16.8188 6.4773 16.7985 6.27083 16.7589 6.06753C17.5321 5.31963 18.0777 4.37536 18.3346 3.34048Z" fill="white"/>
</svg>
